<?xml version="1.0" standalone="no"?>
<!DOCTYPE svg PUBLIC "-//W3C//DTD SVG 20010904//EN"
 "http://www.w3.org/TR/2001/REC-SVG-20010904/DTD/svg10.dtd">
<svg version="1.0" xmlns="http://www.w3.org/2000/svg"
 width="619.000000pt" height="619.000000pt" viewBox="0 0 619.000000 619.000000"
 preserveAspectRatio="xMidYMid meet">
<metadata>
Created by potrace 1.14, written by Peter Selinger 2001-2017
</metadata>
<g transform="translate(0.000000,619.000000) scale(0.100000,-0.100000)"
fill="#000000" stroke="none">
<path d="M4716 6172 c-3 -2 -138 -6 -302 -8 -163 -2 -304 -6 -313 -9 -10 -3
-118 -7 -242 -10 -123 -3 -264 -8 -314 -10 -294 -14 -398 -18 -660 -20 -159
-2 -299 -5 -311 -8 -25 -6 -107 -17 -172 -23 -26 -2 -150 -6 -277 -9 -126 -3
-252 -7 -280 -10 -27 -3 -111 -7 -185 -10 -213 -9 -323 -15 -348 -20 -39 -7
-283 -15 -592 -17 l-295 -3 -12 -23 c-29 -54 -87 -189 -95 -222 -6 -19 -11
-217 -13 -440 -2 -223 -7 -475 -11 -560 -9 -189 -9 -560 1 -770 9 -189 9 -276
-2 -780 -4 -217 -7 -555 -6 -750 1 -195 3 -511 4 -702 l2 -348 96 -1 c97 0
227 -7 291 -13 19 -3 119 -5 221 -5 l186 -1 38 -93 c20 -50 59 -139 85 -197
26 -58 64 -150 84 -205 21 -55 65 -156 98 -225 34 -69 110 -246 169 -393 59
-147 110 -268 115 -268 9 -1 55 84 213 396 118 232 190 402 274 650 19 55 56
162 83 238 l48 137 35 2 c20 1 187 2 371 3 184 1 445 5 580 9 135 4 313 6 395
5 83 -2 254 -2 380 -2 299 2 902 2 985 1 90 -2 252 10 384 27 61 8 127 16 146
19 67 8 155 20 163 22 4 1 16 2 26 3 21 1 24 12 37 156 12 133 18 581 9 745
-3 64 -5 353 -3 525 0 28 -2 109 -5 180 -3 72 -2 150 3 175 7 39 12 73 25 180
4 28 14 246 21 445 3 72 7 279 8 460 6 566 8 668 16 730 5 33 11 98 15 145 3
47 8 101 10 120 1 19 7 78 11 130 8 92 10 419 2 490 -3 34 -6 36 -96 72 -205
81 -198 80 -422 84 -424 8 -670 11 -674 6z m722 -103 c126 -1 147 -5 279 -55
67 -26 92 -41 96 -56 7 -25 1 -419 -6 -463 -3 -16 -8 -68 -12 -115 -13 -178
-16 -209 -21 -232 -9 -37 -16 -445 -15 -783 0 -93 -1 -192 -4 -220 -2 -27 -6
-147 -9 -265 -7 -266 -14 -361 -35 -511 -10 -65 -16 -142 -14 -171 1 -29 5
-242 8 -473 12 -881 5 -1098 -34 -1109 -14 -4 -76 -12 -156 -22 -99 -11 -141
-16 -156 -19 -74 -14 -1016 -30 -1404 -23 -280 5 -794 2 -900 -5 -66 -5 -187
-8 -270 -7 -379 5 -553 1 -561 -11 -6 -10 -65 -176 -111 -309 -114 -336 -179
-504 -258 -660 -125 -247 -156 -305 -165 -305 -6 0 -41 77 -79 170 -37 94 -93
220 -124 282 -30 61 -79 174 -107 250 -29 76 -67 167 -85 203 -17 36 -51 112
-73 170 -23 58 -51 120 -62 138 l-20 32 -177 -2 c-98 0 -225 2 -283 6 -58 4
-144 9 -192 11 -48 2 -91 5 -95 8 -4 3 -6 40 -3 84 7 98 5 318 -5 533 -9 205
-9 370 -1 710 3 146 9 409 12 585 4 176 7 325 7 330 0 6 -4 75 -8 155 -10 180
-11 651 -2 910 3 107 7 348 8 535 2 362 3 370 55 491 l28 64 246 1 c345 1 464
5 665 25 22 2 112 6 200 9 88 3 183 8 210 10 28 3 147 7 265 9 251 5 385 13
455 29 28 5 167 11 310 12 143 1 334 6 425 10 272 12 285 13 545 20 138 3 266
8 285 11 19 3 151 7 293 8 141 2 260 6 263 9 3 3 157 3 342 1 186 -2 388 -5
450 -5z"/>
<path d="M4737 5934 c-8 -8 -371 -17 -457 -11 -14 1 -68 -2 -120 -7 -52 -5
-156 -10 -230 -11 -139 -2 -453 -14 -550 -21 -30 -2 -212 -6 -405 -9 -192 -3
-359 -7 -370 -9 -150 -23 -180 -25 -405 -31 -113 -3 -257 -8 -320 -11 -205
-11 -243 -12 -394 -19 -82 -3 -152 -8 -156 -10 -12 -7 -266 -16 -525 -19
l-230 -2 -14 -40 c-10 -30 -14 -137 -16 -469 -2 -237 -6 -489 -11 -560 -9
-146 -7 -573 3 -710 8 -112 8 -298 -2 -815 -11 -532 -11 -995 -1 -1150 4 -69
9 -181 9 -249 l2 -124 40 -4 c22 -1 155 -5 295 -8 140 -2 278 -7 306 -10 47
-6 53 -9 75 -48 20 -35 63 -127 98 -212 5 -11 32 -74 61 -140 29 -66 56 -129
61 -140 5 -11 22 -58 39 -105 17 -47 62 -149 101 -228 38 -79 69 -147 69 -152
0 -5 5 -12 10 -15 20 -12 159 316 240 565 29 88 96 278 131 372 39 104 59 144
73 147 6 1 220 3 476 6 256 2 485 7 510 10 39 5 272 5 870 2 80 0 305 1 500 3
195 1 423 2 505 2 83 -1 168 1 190 3 22 2 72 6 110 9 39 4 81 9 95 11 14 2 52
7 85 11 33 3 64 10 70 15 10 10 12 443 6 924 -2 110 -3 247 -3 305 -1 58 -1
157 -2 220 0 63 5 151 11 195 23 154 22 144 40 615 3 96 7 310 8 475 3 464 6
615 15 673 5 29 12 97 15 152 3 55 8 108 10 118 13 71 27 412 18 439 -3 7 -30
22 -61 33 -51 19 -84 22 -322 26 -384 8 -551 10 -553 8z"/>
</g>
</svg>
