<svg width="590" height="600" xmlns="http://www.w3.org/2000/svg">
 <g>
  <title>Layer 1</title>
  <g stroke="null">
   <path stroke="null" fill="#1877f2" d="m587.6665,300.00017c0,-164.39692 -131.03113,-297.66663 -292.6662,-297.66663c-161.6355,0 -292.66662,133.2697 -292.66662,297.66663c0,148.57365 107.02376,271.7195 246.93734,294.05015l0,-208.00608l-74.30971,0l0,-86.04407l74.30971,0l0,-65.57965c0,-74.60295 43.6929,-115.81086 110.54433,-115.81086c32.0204,0 65.51299,5.81365 65.51299,5.81365l0,73.25386l-36.9047,0c-36.35638,0 -47.69406,22.94546 -47.69406,46.48568l0,55.83732l81.16908,0l-12.97579,86.04407l-68.19372,0l0,208.00608c139.91358,-22.33065 246.93734,-145.4765 246.93734,-294.05015"/>
   <path stroke="null" fill="#fff" d="m408.92287,386.04424l12.97579,-86.04407l-81.16951,0l0,-55.83775c0,-23.53978 11.33811,-46.48524 47.69449,-46.48524l36.9047,0l0,-73.25386s-33.49259,-5.81365 -65.51299,-5.81365c-66.85143,0 -110.54433,41.20791 -110.54433,115.81086l0,65.57965l-74.30971,0l0,86.04407l74.30971,0l0,208.00608a294.86934,299.90697 0 0 0 45.72928,3.61604c15.55705,0 30.82858,-1.23834 45.72885,-3.61604l0,-208.00608l68.19372,0"/>
  </g>
 </g>

</svg>